<svg xmlns="http://www.w3.org/2000/svg" xmlns:xlink="http://www.w3.org/1999/xlink" version="1.2" width="100.00mm" height="70.00mm" viewBox="4 0 56.9 39.8339">
<style type="text/css">
<![CDATA[
tspan { white-space: pre; }
]]>
</style>
<!-- Page: 1/1 -->
<g transform="translate(14.2264, 9.6243)">
<line stroke-linejoin="round" stroke-linecap="round" stroke-width="0.1000" stroke="currentColor" x1="0.0500" y1="0" x2="46.7366" y2="0"/>
</g>
<g transform="translate(14.2264, 8.6243)">
<line stroke-linejoin="round" stroke-linecap="round" stroke-width="0.1000" stroke="currentColor" x1="0.0500" y1="0" x2="46.7366" y2="0"/>
</g>
<g transform="translate(14.2264, 7.6243)">
<line stroke-linejoin="round" stroke-linecap="round" stroke-width="0.1000" stroke="currentColor" x1="0.0500" y1="0" x2="46.7366" y2="0"/>
</g>
<g transform="translate(14.2264, 6.6243)">
<line stroke-linejoin="round" stroke-linecap="round" stroke-width="0.1000" stroke="currentColor" x1="0.0500" y1="0" x2="46.7366" y2="0"/>
</g>
<g transform="translate(14.2264, 5.6243)">
<line stroke-linejoin="round" stroke-linecap="round" stroke-width="0.1000" stroke="currentColor" x1="0.0500" y1="0" x2="46.7366" y2="0"/>
</g>
<g transform="translate(5.6906, 16.3093)">
<rect x="52.5200" y="-0.1000" width="1.9563" height="0.2000" ry="0.1000" fill="currentColor"/>
</g>
<g transform="translate(5.6906, 16.3093)">
<rect x="47.7616" y="-0.1000" width="1.9563" height="0.2000" ry="0.1000" fill="currentColor"/>
</g>
<g transform="translate(5.6906, 16.3093)">
<rect x="45.2574" y="-0.1000" width="1.9563" height="0.2000" ry="0.1000" fill="currentColor"/>
</g>
<g transform="translate(5.6906, 16.3093)">
<rect x="31.0363" y="-0.1000" width="1.9563" height="0.2000" ry="0.1000" fill="currentColor"/>
</g>
<g transform="translate(5.6906, 16.3093)">
<rect x="27.3321" y="-0.1000" width="1.9563" height="0.2000" ry="0.1000" fill="currentColor"/>
</g>
<g transform="translate(5.6906, 16.3093)">
<rect x="18.2798" y="-0.1000" width="1.9563" height="0.2000" ry="0.1000" fill="currentColor"/>
</g>
<g transform="translate(14.2264, 21.3093)">
<line stroke-linejoin="round" stroke-linecap="round" stroke-width="0.1000" stroke="currentColor" x1="0.0500" y1="0" x2="46.7366" y2="0"/>
</g>
<g transform="translate(14.2264, 20.3093)">
<line stroke-linejoin="round" stroke-linecap="round" stroke-width="0.1000" stroke="currentColor" x1="0.0500" y1="0" x2="46.7366" y2="0"/>
</g>
<g transform="translate(14.2264, 19.3093)">
<line stroke-linejoin="round" stroke-linecap="round" stroke-width="0.1000" stroke="currentColor" x1="0.0500" y1="0" x2="46.7366" y2="0"/>
</g>
<g transform="translate(14.2264, 18.3093)">
<line stroke-linejoin="round" stroke-linecap="round" stroke-width="0.1000" stroke="currentColor" x1="0.0500" y1="0" x2="46.7366" y2="0"/>
</g>
<g transform="translate(14.2264, 17.3093)">
<line stroke-linejoin="round" stroke-linecap="round" stroke-width="0.1000" stroke="currentColor" x1="0.0500" y1="0" x2="46.7366" y2="0"/>
</g>
<g transform="translate(60.8230, 7.6243)">
<rect x="0.0000" y="-2.0000" width="0.1900" height="4.0500" ry="0.0000" fill="currentColor"/>
</g>
<g transform="translate(60.8230, 3.8453)">
<rect x="0.0000" y="5.8290" width="0.1900" height="7.6350" ry="0.0000" fill="currentColor"/>
</g>
<g transform="translate(60.8230, 19.3093)">
<rect x="0.0000" y="-2.0500" width="0.1900" height="4.0500" ry="0.0000" fill="currentColor"/>
</g>
<g transform="translate(46.0806, 19.3093)">
<rect x="-0.0650" y="-1.8139" width="0.1300" height="3.3726" ry="0.0400" fill="currentColor"/>
</g>
<a style="color:inherit;" xlink:href="textedit:///home/kelvinxu/work/intelli-piano/data:ea3e2bb7308e14cb.ly:50:109:138">
<g transform="translate(46.0156, 17.3093)">
<path transform="scale(0.0040, -0.0040)" d="M218 136c55 0 108 -28 108 -89c0 -71 -55 -121 -102 -149c-35 -21 -75 -34 -116 -34c-55 0 -108 28 -108 89c0 71 55 121 102 149c35 21 75 34 116 34z" fill="currentColor"/>
</g>
</a>
<g transform="translate(42.3764, 19.3093)">
<rect x="-0.0650" y="-2.3139" width="0.1300" height="3.5103" ry="0.0400" fill="currentColor"/>
</g>
<a style="color:inherit;" xlink:href="textedit:///home/kelvinxu/work/intelli-piano/data:ea3e2bb7308e14cb.ly:50:113:142">
<g transform="translate(48.5198, 17.8093)">
<path transform="scale(0.0040, -0.0040)" d="M218 136c55 0 108 -28 108 -89c0 -71 -55 -121 -102 -149c-35 -21 -75 -34 -116 -34c-55 0 -108 28 -108 89c0 71 55 121 102 149c35 21 75 34 116 34z" fill="currentColor"/>
</g>
</a>
<g transform="translate(48.5848, 19.3093)">
<rect x="-0.0650" y="-1.3139" width="0.1300" height="3.1175" ry="0.0400" fill="currentColor"/>
</g>
<a style="color:inherit;" xlink:href="textedit:///home/kelvinxu/work/intelli-piano/data:ea3e2bb7308e14cb.ly:35:87:116">
<g transform="translate(51.2740, 8.6243)">
<path transform="scale(0.0040, -0.0040)" d="M218 136c55 0 108 -28 108 -89c0 -71 -55 -121 -102 -149c-35 -21 -75 -34 -116 -34c-55 0 -108 28 -108 89c0 71 55 121 102 149c35 21 75 34 116 34z" fill="currentColor"/>
</g>
</a>
<a style="color:inherit;" xlink:href="textedit:///home/kelvinxu/work/intelli-piano/data:ea3e2bb7308e14cb.ly:50:119:148">
<g transform="translate(51.2740, 16.3093)">
<path transform="scale(0.0040, -0.0040)" d="M218 136c55 0 108 -28 108 -89c0 -71 -55 -121 -102 -149c-35 -21 -75 -34 -116 -34c-55 0 -108 28 -108 89c0 71 55 121 102 149c35 21 75 34 116 34z" fill="currentColor"/>
</g>
</a>
<g transform="translate(52.5132, 7.6243)">
<rect x="-0.0650" y="-2.5000" width="0.1300" height="3.3139" ry="0.0400" fill="currentColor"/>
</g>
<a style="color:inherit;" xlink:href="textedit:///home/kelvinxu/work/intelli-piano/data:ea3e2bb7308e14cb.ly:39:89:118">
<g transform="translate(37.0529, 9.6243)">
<path transform="scale(0.0040, -0.0040)" d="M218 136c55 0 108 -28 108 -89c0 -71 -55 -121 -102 -149c-35 -21 -75 -34 -116 -34c-55 0 -108 28 -108 89c0 71 55 121 102 149c35 21 75 34 116 34z" fill="currentColor"/>
</g>
</a>
<a style="color:inherit;" xlink:href="textedit:///home/kelvinxu/work/intelli-piano/data:ea3e2bb7308e14cb.ly:35:71:100">
<g transform="translate(26.8270, 4.4343)">
<polygon stroke-linejoin="round" stroke-linecap="round" stroke-width="0.0800" fill="currentColor" stroke="currentColor" points="5.1984 -0.5100 5.1984 -0.1100 0.0400 0.2000 0.0400 -0.2000"/>
</g>
<g transform="translate(30.9004, 5.0032)">
<polygon stroke-linejoin="round" stroke-linecap="round" stroke-width="0.0800" fill="currentColor" stroke="currentColor" points="1.1250 -0.2689 1.1250 0.1311 0.0400 0.2000 0.0400 -0.2000"/>
</g>
</a>
<a style="color:inherit;" xlink:href="textedit:///home/kelvinxu/work/intelli-piano/data:ea3e2bb7308e14cb.ly:50:96:125">
<g transform="translate(37.0529, 16.3093)">
<path transform="scale(0.0040, -0.0040)" d="M218 136c55 0 108 -28 108 -89c0 -71 -55 -121 -102 -149c-35 -21 -75 -34 -116 -34c-55 0 -108 28 -108 89c0 71 55 121 102 149c35 21 75 34 116 34z" fill="currentColor"/>
</g>
</a>
<g transform="translate(37.1179, 7.6243)">
<rect x="-0.0650" y="2.1861" width="0.1300" height="2.3726" ry="0.0400" fill="currentColor"/>
</g>
<g transform="translate(37.1179, 19.3093)">
<rect x="-0.0650" y="-2.8139" width="0.1300" height="3.0007" ry="0.0400" fill="currentColor"/>
</g>
<a style="color:inherit;" xlink:href="textedit:///home/kelvinxu/work/intelli-piano/data:ea3e2bb7308e14cb.ly:39:93:122">
<g transform="translate(39.5572, 10.1243)">
<path transform="scale(0.0040, -0.0040)" d="M218 136c55 0 108 -28 108 -89c0 -71 -55 -121 -102 -149c-35 -21 -75 -34 -116 -34c-55 0 -108 28 -108 89c0 71 55 121 102 149c35 21 75 34 116 34z" fill="currentColor"/>
</g>
</a>
<g transform="translate(39.6222, 7.6243)">
<rect x="-0.0650" y="2.6861" width="0.1300" height="2.1175" ry="0.0400" fill="currentColor"/>
</g>
<a style="color:inherit;" xlink:href="textedit:///home/kelvinxu/work/intelli-piano/data:ea3e2bb7308e14cb.ly:39:99:128">
<g transform="translate(42.3114, 9.1243)">
<path transform="scale(0.0040, -0.0040)" d="M314 65c0 24 -21 41 -42 41c-4 0 -8 0 -12 -1c-31 -9 -78 -40 -115 -64s-84 -53 -104 -78c-7 -8 -10 -18 -10 -28c0 -24 21 -41 42 -41c4 0 8 0 12 1c31 9 77 40 114 64s84 53 104 78c7 8 11 18 11 28zM262 136c46 0 82 -21 82 -71c0 -19 -4 -39 -10 -57
c-12 -37 -32 -72 -64 -94c-53 -36 -113 -50 -187 -50c-46 0 -83 21 -83 71c0 19 5 39 11 57c12 37 31 72 63 94c53 36 114 50 188 50z" fill="currentColor"/>
</g>
</a>
<a style="color:inherit;" xlink:href="textedit:///home/kelvinxu/work/intelli-piano/data:ea3e2bb7308e14cb.ly:50:101:130">
<g transform="translate(42.3114, 16.8093)">
<path transform="scale(0.0040, -0.0040)" d="M218 136c55 0 108 -28 108 -89c0 -71 -55 -121 -102 -149c-35 -21 -75 -34 -116 -34c-55 0 -108 28 -108 89c0 71 55 121 102 149c35 21 75 34 116 34z" fill="currentColor"/>
</g>
</a>
<g transform="translate(42.3764, 7.6243)">
<rect x="-0.0650" y="1.7590" width="0.1300" height="2.5743" ry="0.0400" fill="currentColor"/>
</g>
<a style="color:inherit;" xlink:href="textedit:///home/kelvinxu/work/intelli-piano/data:ea3e2bb7308e14cb.ly:50:123:152">
<g transform="translate(51.2740, 18.4993)">
<polygon stroke-linejoin="round" stroke-linecap="round" stroke-width="0.0800" fill="currentColor" stroke="currentColor" points="7.3526 -0.2000 7.3526 0.2000 0.0400 0.2000 0.0400 -0.2000"/>
</g>
<g transform="translate(51.2740, 19.3093)">
<polygon stroke-linejoin="round" stroke-linecap="round" stroke-width="0.0800" fill="currentColor" stroke="currentColor" points="7.3526 -0.2000 7.3526 0.2000 0.0400 0.2000 0.0400 -0.2000"/>
</g>
</a>
<a style="color:inherit;" xlink:href="textedit:///home/kelvinxu/work/intelli-piano/data:ea3e2bb7308e14cb.ly:50:105:134">
<g transform="translate(46.0156, 20.0516)">
<polygon stroke-linejoin="round" stroke-linecap="round" stroke-width="0.0800" fill="currentColor" stroke="currentColor" points="2.5942 0.0577 2.5942 0.4577 0.0400 0.2000 0.0400 -0.2000"/>
</g>
<g transform="translate(42.3114, 20.4993)">
<polygon stroke-linejoin="round" stroke-linecap="round" stroke-width="0.0800" fill="currentColor" stroke="currentColor" points="6.2984 0.4200 6.2984 0.8200 0.0400 0.2000 0.0400 -0.2000"/>
</g>
</a>
<a style="color:inherit;" xlink:href="textedit:///home/kelvinxu/work/intelli-piano/data:ea3e2bb7308e14cb.ly:50:89:118">
<g transform="translate(33.3487, 19.3093)">
<polygon stroke-linejoin="round" stroke-linecap="round" stroke-width="0.0800" fill="currentColor" stroke="currentColor" points="3.7942 -0.0100 3.7942 0.3900 0.0400 0.2000 0.0400 -0.2000"/>
</g>
</a>
<a style="color:inherit;" xlink:href="textedit:///home/kelvinxu/work/intelli-piano/data:ea3e2bb7308e14cb.ly:39:87:116">
<g transform="translate(37.0529, 11.3666)">
<polygon stroke-linejoin="round" stroke-linecap="round" stroke-width="0.0800" fill="currentColor" stroke="currentColor" points="2.5942 0.0577 2.5942 0.4577 0.0400 0.2000 0.0400 -0.2000"/>
</g>
<g transform="translate(33.3487, 11.8143)">
<polygon stroke-linejoin="round" stroke-linecap="round" stroke-width="0.0800" fill="currentColor" stroke="currentColor" points="6.2984 0.4200 6.2984 0.8200 0.0400 0.2000 0.0400 -0.2000"/>
</g>
</a>
<a style="color:inherit;" xlink:href="textedit:///home/kelvinxu/work/intelli-piano/data:ea3e2bb7308e14cb.ly:50:78:107">
<g transform="translate(28.2570, 19.3093)">
<path stroke-width="0.0800" stroke-linejoin="round" stroke-linecap="round" stroke="currentColor" fill="currentColor" d="M0.1295 1.3085C1.4483 2.1896 4.2188 1.7742 5.2212 0.5450L5.2212 0.5450C4.2010 1.6555 1.4305 2.0709 0.1295 1.3085z"/>
</g>
</a>
<a style="color:inherit;" xlink:href="textedit:///home/kelvinxu/work/intelli-piano/data:ea3e2bb7308e14cb.ly:50:69:98">
<g transform="translate(28.2570, 19.0617)">
<polygon stroke-linejoin="round" stroke-linecap="round" stroke-width="0.0800" fill="currentColor" stroke="currentColor" points="2.5942 0.0477 2.5942 0.4477 0.0400 0.2000 0.0400 -0.2000"/>
</g>
<g transform="translate(24.2964, 19.4993)">
<polygon stroke-linejoin="round" stroke-linecap="round" stroke-width="0.0800" fill="currentColor" stroke="currentColor" points="6.5548 0.4200 6.5548 0.8200 0.0400 0.2000 0.0400 -0.2000"/>
</g>
</a>
<a style="color:inherit;" xlink:href="textedit:///home/kelvinxu/work/intelli-piano/data:ea3e2bb7308e14cb.ly:39:72:101">
<g transform="translate(28.2570, 11.3766)">
<polygon stroke-linejoin="round" stroke-linecap="round" stroke-width="0.0800" fill="currentColor" stroke="currentColor" points="2.5942 0.0477 2.5942 0.4477 0.0400 0.2000 0.0400 -0.2000"/>
</g>
<g transform="translate(24.2964, 11.8143)">
<polygon stroke-linejoin="round" stroke-linecap="round" stroke-width="0.0800" fill="currentColor" stroke="currentColor" points="6.5548 0.4200 6.5548 0.8200 0.0400 0.2000 0.0400 -0.2000"/>
</g>
</a>
<a style="color:inherit;" xlink:href="textedit:///home/kelvinxu/work/intelli-piano/data:ea3e2bb7308e14cb.ly:50:129:158">
<g transform="translate(56.0324, 16.8093)">
<path transform="scale(0.0040, -0.0040)" d="M218 136c55 0 108 -28 108 -89c0 -71 -55 -121 -102 -149c-35 -21 -75 -34 -116 -34c-55 0 -108 28 -108 89c0 71 55 121 102 149c35 21 75 34 116 34z" fill="currentColor"/>
</g>
</a>
<g transform="translate(51.3390, 19.3093)">
<rect x="-0.0650" y="-2.8139" width="0.1300" height="2.8139" ry="0.0400" fill="currentColor"/>
</g>
<a style="color:inherit;" xlink:href="textedit:///home/kelvinxu/work/intelli-piano/data:ea3e2bb7308e14cb.ly:50:125:154">
<g transform="translate(53.7782, 15.8093)">
<path transform="scale(0.0040, -0.0040)" d="M218 136c55 0 108 -28 108 -89c0 -71 -55 -121 -102 -149c-35 -21 -75 -34 -116 -34c-55 0 -108 28 -108 89c0 71 55 121 102 149c35 21 75 34 116 34z" fill="currentColor"/>
</g>
</a>
<g transform="translate(53.8432, 19.3093)">
<rect x="-0.0650" y="-3.3139" width="0.1300" height="3.3139" ry="0.0400" fill="currentColor"/>
</g>
<g transform="translate(56.0974, 19.3093)">
<rect x="-0.0650" y="-2.3139" width="0.1300" height="2.3139" ry="0.0400" fill="currentColor"/>
</g>
<a style="color:inherit;" xlink:href="textedit:///home/kelvinxu/work/intelli-piano/data:ea3e2bb7308e14cb.ly:50:134:163">
<g transform="translate(58.5366, 16.3093)">
<path transform="scale(0.0040, -0.0040)" d="M218 136c55 0 108 -28 108 -89c0 -71 -55 -121 -102 -149c-35 -21 -75 -34 -116 -34c-55 0 -108 28 -108 89c0 71 55 121 102 149c35 21 75 34 116 34z" fill="currentColor"/>
</g>
</a>
<g transform="translate(58.6016, 19.3093)">
<rect x="-0.0650" y="-2.8139" width="0.1300" height="2.8139" ry="0.0400" fill="currentColor"/>
</g>
<g transform="translate(24.3614, 19.3093)">
<rect x="-0.0650" y="-2.8139" width="0.1300" height="3.0100" ry="0.0400" fill="currentColor"/>
</g>
<a style="color:inherit;" xlink:href="textedit:///home/kelvinxu/work/intelli-piano/data:ea3e2bb7308e14cb.ly:39:74:103">
<g transform="translate(28.2570, 9.1243)">
<path transform="scale(0.0040, -0.0040)" d="M218 136c55 0 108 -28 108 -89c0 -71 -55 -121 -102 -149c-35 -21 -75 -34 -116 -34c-55 0 -108 28 -108 89c0 71 55 121 102 149c35 21 75 34 116 34z" fill="currentColor"/>
</g>
</a>
<a style="color:inherit;" xlink:href="textedit:///home/kelvinxu/work/intelli-piano/data:ea3e2bb7308e14cb.ly:50:73:102">
<g transform="translate(28.2570, 16.8093)">
<path transform="scale(0.0040, -0.0040)" d="M218 136c55 0 108 -28 108 -89c0 -71 -55 -121 -102 -149c-35 -21 -75 -34 -116 -34c-55 0 -108 28 -108 89c0 71 55 121 102 149c35 21 75 34 116 34z" fill="currentColor"/>
</g>
</a>
<g transform="translate(28.3220, 7.6243)">
<rect x="-0.0650" y="1.6861" width="0.1300" height="2.8824" ry="0.0400" fill="currentColor"/>
</g>
<a style="color:inherit;" xlink:href="textedit:///home/kelvinxu/work/intelli-piano/data:ea3e2bb7308e14cb.ly:50:66:95">
<g transform="translate(24.2964, 16.3093)">
<path transform="scale(0.0040, -0.0040)" d="M218 136c55 0 108 -28 108 -89c0 -71 -55 -121 -102 -149c-35 -21 -75 -34 -116 -34c-55 0 -108 28 -108 89c0 71 55 121 102 149c35 21 75 34 116 34z" fill="currentColor"/>
</g>
</a>
<g transform="translate(13.8664, 13.4668)">
<path transform="scale(0.0040, -0.0040)" d="M-212 -1384c0 324 128 636 128 944c0 160 -36 308 -148 432c0 4 -4 4 -4 8s4 4 4 8c112 124 148 272 148 432c0 308 -128 620 -128 944c0 220 52 428 200 592c16 16 40 -8 24 -24c-112 -124 -148 -272 -148 -432c0 -300 120 -612 120 -928c0 -220 -48 -428 -192 -592
c144 -164 192 -372 192 -592c0 -316 -120 -628 -120 -928c0 -160 36 -308 148 -432c16 -16 -8 -40 -24 -24c-148 164 -200 372 -200 592z" fill="currentColor"/>
</g>
<g transform="translate(14.1664, 13.4668)">
<rect x="0.0000" y="-7.8925" width="0.1600" height="15.7850" ry="0.0500" fill="currentColor"/>
</g>
<a style="color:inherit;" xlink:href="textedit:///home/kelvinxu/work/intelli-piano/data:ea3e2bb7308e14cb.ly:35:66:95">
<g transform="translate(25.6528, 8.1243)">
<path transform="scale(0.0040, -0.0040)" d="M218 136c55 0 108 -28 108 -89c0 -71 -55 -121 -102 -149c-35 -21 -75 -34 -116 -34c-55 0 -108 28 -108 89c0 71 55 121 102 149c35 21 75 34 116 34z" fill="currentColor"/>
</g>
</a>
<a style="color:inherit;" xlink:href="textedit:///home/kelvinxu/work/intelli-piano/data:ea3e2bb7308e14cb.ly:39:68:97">
<g transform="translate(24.2964, 8.6243)">
<path transform="scale(0.0040, -0.0040)" d="M218 136c55 0 108 -28 108 -89c0 -71 -55 -121 -102 -149c-35 -21 -75 -34 -116 -34c-55 0 -108 28 -108 89c0 71 55 121 102 149c35 21 75 34 116 34z" fill="currentColor"/>
</g>
</a>
<g transform="translate(15.0264, 8.6243)">
<path transform="scale(0.0040, -0.0040)" d="M266 -635h-6c-108 0 -195 88 -195 197c0 58 53 103 112 103c54 0 95 -47 95 -103c0 -52 -43 -95 -95 -95c-11 0 -21 2 -31 6c26 -39 68 -65 117 -65h4zM461 -203c68 24 113 95 113 164c0 90 -66 179 -173 190c24 -116 46 -231 60 -354zM74 28c0 -135 129 -247 264 -247
c28 0 55 2 82 6c-14 127 -37 245 -63 364c-79 -8 -124 -61 -124 -119c0 -44 25 -91 81 -123c5 -5 7 -10 7 -15c0 -11 -10 -22 -22 -22c-3 0 -6 1 -9 2c-80 43 -117 115 -117 185c0 88 58 174 160 197c-14 58 -29 117 -46 175c-107 -121 -213 -243 -213 -403zM335 -262
c-188 0 -333 172 -333 374c0 177 131 306 248 441c-19 62 -37 125 -45 190c-6 52 -7 104 -7 156c0 115 55 224 149 292c6 5 14 5 20 0c71 -84 133 -245 133 -358c0 -143 -86 -255 -180 -364c21 -68 39 -138 56 -207c4 0 9 1 13 1c155 0 256 -128 256 -261
c0 -76 -33 -154 -107 -210c-22 -17 -47 -28 -73 -36c3 -35 5 -70 5 -105c0 -19 -1 -39 -2 -58c-7 -119 -88 -225 -202 -228l1 43c93 2 153 92 159 191c1 18 2 37 2 55c0 31 -1 61 -4 92c-29 -5 -58 -8 -89 -8zM428 916c0 55 -4 79 -20 129c-99 -48 -162 -149 -162 -259
c0 -74 18 -133 36 -194c80 97 146 198 146 324z" fill="currentColor"/>
</g>
<a style="color:inherit;" xlink:href="textedit:///home/kelvinxu/work/intelli-piano/data:ea3e2bb7308e14cb.ly:35:19:48">
<g transform="translate(18.6464, 7.6243)">
<path transform="scale(0.0040, -0.0040)" d="M27 41l-1 -66v-11c0 -22 1 -44 4 -66c45 38 93 80 93 139c0 33 -14 67 -43 67c-31 0 -52 -30 -53 -63zM-15 -138l-12 595c8 5 18 8 27 8s19 -3 27 -8l-7 -345c25 21 58 34 91 34c52 0 89 -48 89 -102c0 -80 -86 -117 -147 -169c-15 -13 -24 -38 -45 -38
c-13 0 -23 11 -23 25z" fill="currentColor"/>
</g>
</a>
<a style="color:inherit;" xlink:href="textedit:///home/kelvinxu/work/intelli-piano/data:ea3e2bb7308e14cb.ly:39:33:62">
<g transform="translate(20.5964, 7.6243)">
<path transform="scale(0.0040, -0.0040)" d="M359 27c-49 0 -75 42 -75 75c0 38 27 77 72 77c4 0 9 0 14 -1c-28 37 -72 59 -120 59c-106 0 -113 -73 -113 -186v-51v-51c0 -113 7 -187 113 -187c80 0 139 70 158 151c2 7 7 10 12 10c6 0 13 -4 13 -12c0 -94 -105 -174 -183 -174c-68 0 -137 21 -184 70
c-49 51 -66 122 -66 193s17 142 66 193c47 49 116 69 184 69c87 0 160 -63 175 -149c1 -5 1 -10 1 -14c0 -40 -30 -72 -67 -72z" fill="currentColor"/>
</g>
</a>
<g transform="translate(15.0264, 18.3093)">
<path transform="scale(0.0040, -0.0040)" d="M557 -125c0 28 23 51 51 51s51 -23 51 -51s-23 -51 -51 -51s-51 23 -51 51zM557 125c0 28 23 51 51 51s51 -23 51 -51s-23 -51 -51 -51s-51 23 -51 51zM232 263c172 0 293 -88 293 -251c0 -263 -263 -414 -516 -521c-3 -3 -6 -4 -9 -4c-7 0 -13 6 -13 13c0 3 1 6 4 9
c202 118 412 265 412 493c0 120 -63 235 -171 235c-74 0 -129 -54 -154 -126c11 5 22 8 34 8c55 0 100 -45 100 -100c0 -58 -44 -106 -100 -106c-60 0 -112 47 -112 106c0 133 102 244 232 244z" fill="currentColor"/>
</g>
<a style="color:inherit;" xlink:href="textedit:///home/kelvinxu/work/intelli-piano/data:ea3e2bb7308e14cb.ly:46:19:48">
<g transform="translate(18.6464, 20.3093)">
<path transform="scale(0.0040, -0.0040)" d="M27 41l-1 -66v-11c0 -22 1 -44 4 -66c45 38 93 80 93 139c0 33 -14 67 -43 67c-31 0 -52 -30 -53 -63zM-15 -138l-12 595c8 5 18 8 27 8s19 -3 27 -8l-7 -345c25 21 58 34 91 34c52 0 89 -48 89 -102c0 -80 -86 -117 -147 -169c-15 -13 -24 -38 -45 -38
c-13 0 -23 11 -23 25z" fill="currentColor"/>
</g>
</a>
<a style="color:inherit;" xlink:href="textedit:///home/kelvinxu/work/intelli-piano/data:ea3e2bb7308e14cb.ly:50:33:62">
<g transform="translate(20.5964, 19.3093)">
<path transform="scale(0.0040, -0.0040)" d="M359 27c-49 0 -75 42 -75 75c0 38 27 77 72 77c4 0 9 0 14 -1c-28 37 -72 59 -120 59c-106 0 -113 -73 -113 -186v-51v-51c0 -113 7 -187 113 -187c80 0 139 70 158 151c2 7 7 10 12 10c6 0 13 -4 13 -12c0 -94 -105 -174 -183 -174c-68 0 -137 21 -184 70
c-49 51 -66 122 -66 193s17 142 66 193c47 49 116 69 184 69c87 0 160 -63 175 -149c1 -5 1 -10 1 -14c0 -40 -30 -72 -67 -72z" fill="currentColor"/>
</g>
</a>
<g transform="translate(27.4070, 8.1243)">
<path transform="scale(0.0040, -0.0040)" d="M0 0c0 31 25 56 56 56s56 -25 56 -56s-25 -56 -56 -56s-56 25 -56 56z" fill="currentColor"/>
</g>
<g transform="translate(26.8920, 7.6243)">
<rect x="-0.0650" y="-3.1938" width="0.1300" height="3.5077" ry="0.0400" fill="currentColor"/>
</g>
<g transform="translate(24.3614, 7.6243)">
<rect x="-0.0650" y="1.1861" width="0.1300" height="3.0100" ry="0.0400" fill="currentColor"/>
</g>
<g transform="translate(30.8262, 19.3093)">
<rect x="-0.0650" y="-1.8139" width="0.1300" height="2.6178" ry="0.0400" fill="currentColor"/>
</g>
<a style="color:inherit;" xlink:href="textedit:///home/kelvinxu/work/intelli-piano/data:ea3e2bb7308e14cb.ly:35:82:111">
<g transform="translate(33.3487, 8.1243)">
<path transform="scale(0.0040, -0.0040)" d="M314 65c0 24 -21 41 -42 41c-4 0 -8 0 -12 -1c-31 -9 -78 -40 -115 -64s-84 -53 -104 -78c-7 -8 -10 -18 -10 -28c0 -24 21 -41 42 -41c4 0 8 0 12 1c31 9 77 40 114 64s84 53 104 78c7 8 11 18 11 28zM262 136c46 0 82 -21 82 -71c0 -19 -4 -39 -10 -57
c-12 -37 -32 -72 -64 -94c-53 -36 -113 -50 -187 -50c-46 0 -83 21 -83 71c0 19 5 39 11 57c12 37 31 72 63 94c53 36 114 50 188 50z" fill="currentColor"/>
</g>
</a>
<a style="color:inherit;" xlink:href="textedit:///home/kelvinxu/work/intelli-piano/data:ea3e2bb7308e14cb.ly:39:84:113">
<g transform="translate(33.3487, 9.1243)">
<path transform="scale(0.0040, -0.0040)" d="M218 136c55 0 108 -28 108 -89c0 -71 -55 -121 -102 -149c-35 -21 -75 -34 -116 -34c-55 0 -108 28 -108 89c0 71 55 121 102 149c35 21 75 34 116 34z" fill="currentColor"/>
</g>
</a>
<a style="color:inherit;" xlink:href="textedit:///home/kelvinxu/work/intelli-piano/data:ea3e2bb7308e14cb.ly:50:86:115">
<g transform="translate(33.3487, 15.8093)">
<path transform="scale(0.0040, -0.0040)" d="M218 136c55 0 108 -28 108 -89c0 -71 -55 -121 -102 -149c-35 -21 -75 -34 -116 -34c-55 0 -108 28 -108 89c0 71 55 121 102 149c35 21 75 34 116 34z" fill="currentColor"/>
</g>
</a>
<a style="color:inherit;" xlink:href="textedit:///home/kelvinxu/work/intelli-piano/data:ea3e2bb7308e14cb.ly:50:91:120">
<g transform="translate(33.4137, 20.8093)">
<path transform="scale(0.0040, -0.0040)" d="M-50 0c0 28 22 50 50 50s50 -22 50 -50s-22 -50 -50 -50s-50 22 -50 50z" fill="currentColor"/>
</g>
</a>
<g transform="translate(34.6611, 7.6243)">
<rect x="-0.0650" y="-3.0000" width="0.1300" height="3.2410" ry="0.0400" fill="currentColor"/>
</g>
<g transform="translate(33.4137, 7.6243)">
<rect x="-0.0650" y="1.6861" width="0.1300" height="2.5103" ry="0.0400" fill="currentColor"/>
</g>
<g transform="translate(33.4137, 19.3093)">
<rect x="-0.0650" y="-3.3139" width="0.1300" height="3.3171" ry="0.0400" fill="currentColor"/>
</g>
<a style="color:inherit;" xlink:href="textedit:///home/kelvinxu/work/intelli-piano/data:ea3e2bb7308e14cb.ly:35:75:104">
<g transform="translate(30.7612, 7.6243)">
<path transform="scale(0.0040, -0.0040)" d="M218 136c55 0 108 -28 108 -89c0 -71 -55 -121 -102 -149c-35 -21 -75 -34 -116 -34c-55 0 -108 28 -108 89c0 71 55 121 102 149c35 21 75 34 116 34z" fill="currentColor"/>
</g>
</a>
<a style="color:inherit;" xlink:href="textedit:///home/kelvinxu/work/intelli-piano/data:ea3e2bb7308e14cb.ly:39:78:107">
<g transform="translate(30.7612, 9.6243)">
<path transform="scale(0.0040, -0.0040)" d="M218 136c55 0 108 -28 108 -89c0 -71 -55 -121 -102 -149c-35 -21 -75 -34 -116 -34c-55 0 -108 28 -108 89c0 71 55 121 102 149c35 21 75 34 116 34z" fill="currentColor"/>
</g>
</a>
<a style="color:inherit;" xlink:href="textedit:///home/kelvinxu/work/intelli-piano/data:ea3e2bb7308e14cb.ly:50:80:109">
<g transform="translate(30.7612, 17.3093)">
<path transform="scale(0.0040, -0.0040)" d="M218 136c55 0 108 -28 108 -89c0 -71 -55 -121 -102 -149c-35 -21 -75 -34 -116 -34c-55 0 -108 28 -108 89c0 71 55 121 102 149c35 21 75 34 116 34z" fill="currentColor"/>
</g>
</a>
<g transform="translate(32.0004, 7.6243)">
<rect x="-0.0650" y="-3.4962" width="0.1300" height="3.3100" ry="0.0400" fill="currentColor"/>
</g>
<g transform="translate(30.8262, 7.6243)">
<rect x="-0.0650" y="2.1861" width="0.1300" height="2.6178" ry="0.0400" fill="currentColor"/>
</g>
<g transform="translate(28.3220, 19.3093)">
<rect x="-0.0650" y="-2.3139" width="0.1300" height="2.8824" ry="0.0400" fill="currentColor"/>
</g>
</svg>
